<svg width="192" height="192" viewBox="0 0 192 192" fill="none" xmlns="http://www.w3.org/2000/svg">
  <defs>
    <linearGradient id="bg" x1="24" y1="18" x2="170" y2="176" gradientUnits="userSpaceOnUse">
      <stop stop-color="#1A1014"/>
      <stop offset="1" stop-color="#10080B"/>
    </linearGradient>
    <linearGradient id="flesh" x1="48" y1="42" x2="150" y2="154" gradientUnits="userSpaceOnUse">
      <stop stop-color="#FF8A85"/>
      <stop offset="0.58" stop-color="#FF6478"/>
      <stop offset="1" stop-color="#E54661"/>
    </linearGradient>
    <linearGradient id="rind" x1="48" y1="38" x2="125" y2="120" gradientUnits="userSpaceOnUse">
      <stop stop-color="#B7F28A"/>
      <stop offset="1" stop-color="#6AB54D"/>
    </linearGradient>
  </defs>

  <rect x="14" y="14" width="164" height="164" rx="44" fill="url(#bg)" stroke="#4A252C"/>

  <path d="M48 52C48 44.268 54.268 38 62 38H126C133.732 38 140 44.268 140 52V140H86C64.909 140 48 123.091 48 102V52Z" fill="url(#rind)"/>
  <path d="M54 50C54 45.582 57.582 42 62 42H124C128.418 42 132 45.582 132 50V132H86C68.327 132 54 117.673 54 100V50Z" fill="url(#flesh)"/>
  <path d="M140 52L96 96L140 140V52Z" fill="#2A1519" fill-opacity="0.9"/>

  <circle cx="74" cy="65" r="4" fill="#2E181C"/>
  <circle cx="86" cy="73" r="4" fill="#2E181C"/>
  <circle cx="71" cy="82" r="4" fill="#2E181C"/>
</svg>
